<svg xmlns="http://www.w3.org/2000/svg" xmlns:xlink="http://www.w3.org/1999/xlink" version="1.1" x="0px" y="0px" viewBox="0 0 110 137.5" enable-background="new 0 0 110 110" xml:space="preserve"><g><path d="M94,61.22V51c0-7.7-6.3-14-14-14H64.8c-0.8-3.92-3.88-7-7.8-7.8v-6.45c3.45-0.89,6-4.02,6-7.75c0-4.42-3.58-8-8-8   s-8,3.58-8,8c0,3.73,2.55,6.86,6,7.75v6.45c-3.92,0.8-7,3.88-7.8,7.8H30c-7.7,0-14,6.3-14,14v10.22C12,62.14,9,65.73,9,70   s3,7.86,7,8.78V89c0,7.7,6.3,14,14,14h50c7.7,0,14-6.3,14-14V78.78c4-0.92,7-4.511,7-8.78S98,62.14,94,61.22z M16,74.59   c-1.76-0.78-3-2.54-3-4.59s1.24-3.81,3-4.59V74.59z M55,33c2.61,0,4.84,1.67,5.65,4h-11.3C50.16,34.67,52.39,33,55,33z M90,89   c0,5.51-4.49,10-10,10H30c-5.51,0-10-4.49-10-10V51c0-5.51,4.49-10,10-10h50c5.51,0,10,4.49,10,10V89z M94,74.59v-9.18   c1.76,0.78,3,2.54,3,4.59S95.76,73.81,94,74.59z"/><path d="M42,70c4.42,0,8-3.58,8-8s-3.58-8-8-8s-8,3.58-8,8S37.58,70,42,70z M42,58c2.21,0,4,1.79,4,4s-1.79,4-4,4s-4-1.79-4-4   S39.79,58,42,58z"/><path d="M68,54c-4.42,0-8,3.58-8,8s3.58,8,8,8s8-3.58,8-8S72.42,54,68,54z M68,66c-2.21,0-4-1.79-4-4s1.79-4,4-4s4,1.79,4,4   S70.21,66,68,66z"/><rect x="34" y="81" width="42" height="6"/></g><text x="0" y="125" fill="#000000" font-size="5px" font-weight="bold" font-family="'Helvetica Neue', Helvetica, Arial-Unicode, Arial, Sans-serif">Created by Trevor Dsouza</text><text x="0" y="130" fill="#000000" font-size="5px" font-weight="bold" font-family="'Helvetica Neue', Helvetica, Arial-Unicode, Arial, Sans-serif">from the Noun Project</text></svg>