<svg xmlns="http://www.w3.org/2000/svg" data-name="Layer 2" viewBox="0 0 255 318.75" x="0px" y="0px"><title>processor</title><path d="M156,92H99a7,7,0,0,0-7,7V156a7,7,0,0,0,7,7H156a7,7,0,0,0,7-7V99A7,7,0,0,0,156,92ZM149,149H106V106H149Z"/><path d="M245,149H212.11V106H245a7,7,0,0,0,0-14H212.11V49.89a7,7,0,0,0-7-7H163V10a7,7,0,0,0-14,0V42.89H106V10a7,7,0,0,0-14,0V42.89H49.89a7,7,0,0,0-7,7V92H10a7,7,0,0,0,0,14H42.89V149H10a7,7,0,0,0,0,14H42.89v42.08a7,7,0,0,0,7,7H92V245a7,7,0,0,0,14,0V212.11H149V245a7,7,0,0,0,14,0V212.11h42.08a7,7,0,0,0,7-7V163H245a7,7,0,0,0,0-14Zm-46.89,49.08H56.89V56.89H198.11Z"/><text x="0" y="270" fill="#000000" font-size="5px" font-weight="bold" font-family="'Helvetica Neue', Helvetica, Arial-Unicode, Arial, Sans-serif">Created by Aman</text><text x="0" y="275" fill="#000000" font-size="5px" font-weight="bold" font-family="'Helvetica Neue', Helvetica, Arial-Unicode, Arial, Sans-serif">from the Noun Project</text></svg>