<svg xmlns="http://www.w3.org/2000/svg" viewBox="0 0 1920 1016.309">
  <defs>
    <style>
      .cls-1 {
        opacity: 0.15;
      }
    </style>
  </defs>
  <g id="simple-codelines" class="cls-1" transform="translate(0 -0.06)">
    <path id="Path_250" data-name="Path 250" d="M93.375,4430.276a2.363,2.363,0,0,1,0-4.666c13.674-.018,24.755-13.044,24.77-29.118a2.011,2.011,0,1,1,3.969,0c-.022,18.647-12.876,33.758-28.739,33.784Z" transform="translate(41.535 -3653.438)"/>
    <path id="Path_251" data-name="Path 251" d="M42.3,4345.42H15.125a2.364,2.364,0,0,1,0-4.667H42.3c12.621-.016,22.85-12.04,22.864-26.876v-99.918c.014-17.415,12.02-31.526,26.834-31.544h33.913c12.621-.017,22.85-12.041,22.864-26.877V3921.9a2.011,2.011,0,1,1,3.97,0v233.666c-.014,17.414-12.02,31.527-26.834,31.543H91.987c-12.621.017-22.85,12.04-22.864,26.876v99.919C69.094,4331.3,57.1,4345.4,42.3,4345.42Z" transform="translate(16.247 -3917.021)"/>
    <path id="Path_252" data-name="Path 252" d="M233.252,4011.836H158.785a2.364,2.364,0,0,1,0-4.666h74.467a2.364,2.364,0,0,1,0,4.667Z" transform="translate(62.673 -3868.369)"/>
    <path id="Path_253" data-name="Path 253" d="M104.416,4032.136H46.025a2.364,2.364,0,0,1,0-4.667h58.391a2.364,2.364,0,0,1,0,4.667Z" transform="translate(26.233 -3857.094)"/>
    <path id="Path_254" data-name="Path 254" d="M150.085,4032.136h-16.87a2.364,2.364,0,0,1,0-4.667h16.87a2.364,2.364,0,0,1,0,4.667Z" transform="translate(54.41 -3857.094)"/>
    <path id="Path_255" data-name="Path 255" d="M56.632,3971.006H-.515a2.179,2.179,0,0,1-1.985-2.333,2.18,2.18,0,0,1,1.985-2.333H56.632a2.364,2.364,0,0,1,0,4.667Z" transform="translate(11.193 -3891.045)"/>
    <path id="Path_256" data-name="Path 256" d="M88.132,3971.006H58.785a2.363,2.363,0,0,1,0-4.666H88.132a2.364,2.364,0,0,1,0,4.667Z" transform="translate(30.357 -3891.045)"/>
    <path id="Path_257" data-name="Path 257" d="M181.114,3971.006h-36.89a2.363,2.363,0,0,1,0-4.666h36.89a2.364,2.364,0,0,1,0,4.667Z" transform="translate(57.968 -3891.045)"/>
    <path id="Path_258" data-name="Path 258" d="M216.2,3971.006H190.385a2.363,2.363,0,0,1,0-4.666H216.2a2.364,2.364,0,0,1,0,4.667Z" transform="translate(72.885 -3891.045)"/>
    <path id="Path_259" data-name="Path 259" d="M306.366,3971.006H287.485a2.363,2.363,0,0,1,0-4.666h18.908a2.364,2.364,0,0,1-.026,4.667Z" transform="translate(104.264 -3891.045)"/>
    <path id="Path_260" data-name="Path 260" d="M363.369,3971.006H318.8a2.363,2.363,0,0,1,0-4.666h44.564a2.364,2.364,0,0,1,0,4.667Z" transform="translate(114.385 -3891.045)"/>
    <path id="Path_261" data-name="Path 261" d="M73.547,3991.306H53.025a2.364,2.364,0,0,1,0-4.666H73.547a2.364,2.364,0,0,1,0,4.667Z" transform="translate(28.495 -3879.771)"/>
    <path id="Path_262" data-name="Path 262" d="M107.843,4072.967H83.365a2.363,2.363,0,0,1,0-4.666h24.478a2.364,2.364,0,0,1,0,4.667Z" transform="translate(38.3 -3834.418)"/>
    <path id="Path_263" data-name="Path 263" d="M96.822,4093.267H27.1a2.364,2.364,0,0,1,0-4.667H96.822a2.364,2.364,0,0,1,0,4.667Z" transform="translate(20.119 -3823.144)"/>
    <path id="Path_264" data-name="Path 264" d="M102.584,4052.436h-20.1a2.363,2.363,0,0,1,0-4.666h20.1a2.363,2.363,0,0,1,0,4.666Z" transform="translate(38.016 -3845.82)"/>
    <path id="Path_265" data-name="Path 265" d="M49.519,4154.426H-1.515a2.18,2.18,0,0,1-1.985-2.333,2.18,2.18,0,0,1,1.985-2.333H49.559a2.363,2.363,0,0,1-.04,4.665Z" transform="translate(10.87 -3789.176)"/>
    <path id="Path_266" data-name="Path 266" d="M100.194,4154.426H71.085a2.364,2.364,0,0,1,0-4.666h29.11a2.364,2.364,0,0,1,0,4.666Z" transform="translate(34.332 -3789.176)"/>
    <path id="Path_267" data-name="Path 267" d="M192,4154.426H169.735a2.364,2.364,0,0,1,0-4.666H192a2.364,2.364,0,0,1,0,4.666Z" transform="translate(66.211 -3789.176)"/>
    <path id="Path_268" data-name="Path 268" d="M254.673,4154.426H203.295a2.364,2.364,0,0,1,0-4.666H254.66a2.364,2.364,0,0,1,.013,4.666Z" transform="translate(77.057 -3789.176)"/>
    <path id="Path_269" data-name="Path 269" d="M164.621,4174.727H133.765a2.364,2.364,0,0,1,0-4.667h30.856a2.364,2.364,0,0,1,0,4.667Z" transform="translate(54.587 -3777.901)"/>
    <path id="Path_270" data-name="Path 270" d="M124.408,4113.6H103.595a2.364,2.364,0,0,1,0-4.666h20.813a2.364,2.364,0,0,1,0,4.666Z" transform="translate(44.838 -3811.852)"/>
    <path id="Path_271" data-name="Path 271" d="M197.694,4113.6H137.715a2.364,2.364,0,0,1,0-4.666h59.979a2.364,2.364,0,0,1,0,4.666Z" transform="translate(55.864 -3811.852)"/>
    <path id="Path_272" data-name="Path 272" d="M228.756,4113.6H197.715a2.364,2.364,0,0,1,0-4.666h31.041a2.364,2.364,0,0,1,0,4.666Z" transform="translate(75.253 -3811.852)"/>
    <path id="Path_273" data-name="Path 273" d="M148.493,4133.9H71.035a2.364,2.364,0,0,1,0-4.667h77.458a2.364,2.364,0,0,1,0,4.667Z" transform="translate(34.315 -3800.578)"/>
    <path id="Path_274" data-name="Path 274" d="M215.552,4133.9h-56.7a2.364,2.364,0,0,1,0-4.667h56.7a2.364,2.364,0,0,1,0,4.667Z" transform="translate(62.695 -3800.578)"/>
    <path id="Path_275" data-name="Path 275" d="M291.415,4133.9h-74.6a2.364,2.364,0,0,1,0-4.667H291.4a2.364,2.364,0,0,1,.013,4.666Z" transform="translate(81.426 -3800.578)"/>
    <path id="Path_276" data-name="Path 276" d="M34.152,4133.9H5.995a2.364,2.364,0,0,1,0-4.667H34.152a2.364,2.364,0,0,1,0,4.667Z" transform="translate(13.297 -3800.578)"/>
    <path id="Path_277" data-name="Path 277" d="M77.643,4215.556H29.785a2.363,2.363,0,0,1,0-4.666H77.643a2.364,2.364,0,0,1,0,4.667Z" transform="translate(20.985 -3755.224)"/>
    <path id="Path_278" data-name="Path 278" d="M122.428,4215.556H81.715a2.363,2.363,0,0,1,0-4.666h40.714a2.364,2.364,0,0,1,0,4.667Z" transform="translate(37.767 -3755.224)"/>
    <path id="Path_279" data-name="Path 279" d="M221.491,4215.556H175.075a2.363,2.363,0,0,1,0-4.666h46.417a2.364,2.364,0,0,1,0,4.667Z" transform="translate(67.937 -3755.224)"/>
    <path id="Path_280" data-name="Path 280" d="M93.8,4195.027H62.265a2.364,2.364,0,0,1,0-4.667H93.8a2.364,2.364,0,0,1,0,4.667Z" transform="translate(31.481 -3766.627)"/>
    <path id="Path_281" data-name="Path 281" d="M112.29,4195.027H97.735a2.364,2.364,0,0,1,0-4.667H112.29a2.364,2.364,0,0,1,0,4.667Z" transform="translate(42.944 -3766.627)"/>
    <path id="Path_282" data-name="Path 282" d="M130.585,4296.986H95.125a2.364,2.364,0,0,1,0-4.667H130.6a2.364,2.364,0,0,1-.013,4.667Z" transform="translate(42.1 -3709.998)"/>
    <path id="Path_283" data-name="Path 283" d="M156.1,4317.286H144.375a2.363,2.363,0,0,1,0-4.666H156.1a2.363,2.363,0,0,1,0,4.666Z" transform="translate(58.016 -3698.724)"/>
    <path id="Path_284" data-name="Path 284" d="M59.781,4256.157H-.515a2.181,2.181,0,0,1-1.985-2.333,2.18,2.18,0,0,1,1.985-2.333H59.821a2.363,2.363,0,0,1-.04,4.666Z" transform="translate(11.193 -3732.676)"/>
    <path id="Path_285" data-name="Path 285" d="M181.043,4256.157H158.285a2.364,2.364,0,0,1,0-4.667h22.758a2.364,2.364,0,0,1,0,4.667Z" transform="translate(62.511 -3732.676)"/>
    <path id="Path_286" data-name="Path 286" d="M76.464,4276.456H49.485a2.363,2.363,0,0,1,0-4.666H76.464a2.363,2.363,0,0,1,0,4.666Z" transform="translate(27.351 -3721.401)"/>
    <path id="Path_287" data-name="Path 287" d="M134.16,4276.456H84.065a2.363,2.363,0,0,1,0-4.666H134.16a2.363,2.363,0,0,1,0,4.666Z" transform="translate(38.526 -3721.401)"/>
    <path id="Path_288" data-name="Path 288" d="M180.988,4276.456H148.875a2.363,2.363,0,0,1,0-4.666h32.113a2.363,2.363,0,0,1,0,4.666Z" transform="translate(59.47 -3721.401)"/>
    <path id="Path_289" data-name="Path 289" d="M194.583,4276.456H182.675a2.363,2.363,0,0,1,0-4.666h11.908a2.363,2.363,0,0,1,0,4.666Z" transform="translate(70.393 -3721.401)"/>
    <path id="Path_290" data-name="Path 290" d="M124.226,4358.117H70.995a2.364,2.364,0,0,1,0-4.667h53.231a2.364,2.364,0,0,1,0,4.667Z" transform="translate(34.302 -3676.047)"/>
    <path id="Path_291" data-name="Path 291" d="M66.1,4358.006H15.825a2.364,2.364,0,0,1,0-4.667H66.1a2.364,2.364,0,0,1,0,4.667Z" transform="translate(16.474 -3676.109)"/>
    <path id="Path_292" data-name="Path 292" d="M65.516,4378.416h-15.4a2.363,2.363,0,0,1,0-4.666h15.4a2.363,2.363,0,0,1,0,4.666Z" transform="translate(27.555 -3664.774)"/>
    <path id="Path_293" data-name="Path 293" d="M205.167,4378.416H174.655a2.363,2.363,0,0,1,0-4.666H205.18a2.363,2.363,0,0,1-.013,4.665Z" transform="translate(67.801 -3664.774)"/>
    <path id="Path_294" data-name="Path 294" d="M77.646,4337.586h-21.5a2.364,2.364,0,0,1,0-4.667h21.5a2.364,2.364,0,0,1,0,4.667Z" transform="translate(29.503 -3687.449)"/>
    <path id="Path_295" data-name="Path 295" d="M98.886,4337.586H87.295a2.364,2.364,0,0,1,0-4.667H98.886a2.364,2.364,0,0,1,0,4.667Z" transform="translate(39.57 -3687.449)"/>
    <path id="Path_296" data-name="Path 296" d="M244.076,4647.113a2.181,2.181,0,0,1-1.985-2.333v-20.221c-.044-14.8-10.258-26.782-22.851-26.8h0l-107.705.125h0c-14.82.085-26.893-13.968-26.966-31.389l-.251-88.656v-8.9c.007-16.178-11.125-29.312-24.889-29.364H18.715a2.364,2.364,0,0,1,0-4.667H59.428c15.958.025,28.889,15.227,28.911,33.985v8.883l.251,88.656c.029,14.814,10.249,26.808,22.851,26.816h0l107.705-.125h0c14.8.009,26.81,14.1,26.847,31.5v20.22a2.18,2.18,0,0,1-1.985,2.333h0Z" transform="translate(17.408 -3630.805)"/>
    <path id="Path_297" data-name="Path 297" d="M113.569,4439.577H75.555a2.364,2.364,0,0,1,0-4.667h38.014a2.364,2.364,0,0,1,0,4.667Z" transform="translate(35.776 -3630.805)"/>
    <path id="Path_298" data-name="Path 298" d="M202.994,4439.577H119.635a2.364,2.364,0,0,1,0-4.667h83.359a2.364,2.364,0,0,1,0,4.667Z" transform="translate(50.021 -3630.805)"/>
    <path id="Path_299" data-name="Path 299" d="M60.5,4459.876H42.675a2.364,2.364,0,0,1,0-4.667H60.5a2.364,2.364,0,0,1,0,4.667Z" transform="translate(25.151 -3619.531)"/>
    <path id="Path_300" data-name="Path 300" d="M155.019,4398.747H101.855a2.364,2.364,0,0,1,0-4.667h53.165a2.364,2.364,0,0,1,0,4.667Z" transform="translate(44.275 -3653.482)"/>
    <path id="Path_301" data-name="Path 301" d="M43.017,4419.045H-.515a2.179,2.179,0,0,1-1.985-2.332,2.18,2.18,0,0,1,1.985-2.333H43.017a2.363,2.363,0,0,1,0,4.666Z" transform="translate(11.193 -3642.208)"/>
    <path id="Path_302" data-name="Path 302" d="M135.708,4419.045H89.755a2.363,2.363,0,0,1,0-4.666h45.953a2.363,2.363,0,0,1,0,4.666Z" transform="translate(40.365 -3642.208)"/>
    <path id="Path_303" data-name="Path 303" d="M147.443,4419.045H138.6a2.363,2.363,0,0,1,0-4.666h8.839a2.363,2.363,0,0,1,0,4.666Z" transform="translate(56.151 -3642.208)"/>
    <path id="Path_304" data-name="Path 304" d="M160.81,4500.667H117.635a2.364,2.364,0,0,1,0-4.667H160.81a2.364,2.364,0,0,1,0,4.667Z" transform="translate(49.375 -3596.876)"/>
    <path id="Path_305" data-name="Path 305" d="M180.73,4500.667H162.815a2.364,2.364,0,0,1,0-4.667H180.73a2.364,2.364,0,0,1,0,4.667Z" transform="translate(63.975 -3596.876)"/>
    <path id="Path_306" data-name="Path 306" d="M147.553,4521.006h-58.3a2.364,2.364,0,0,1,0-4.667h58.3a2.364,2.364,0,0,1,0,4.667Z" transform="translate(40.203 -3585.58)"/>
    <path id="Path_307" data-name="Path 307" d="M36.738,4480.176H-7.085a2.181,2.181,0,0,1-1.985-2.333,2.18,2.18,0,0,1,1.985-2.333H36.738a2.364,2.364,0,0,1,0,4.666Z" transform="translate(9.07 -3608.257)"/>
    <path id="Path_308" data-name="Path 308" d="M128.822,4480.176H102.875a2.364,2.364,0,0,1,0-4.666h25.947a2.364,2.364,0,0,1,0,4.666Z" transform="translate(44.605 -3608.257)"/>
    <path id="Path_309" data-name="Path 309" d="M165.45,4480.176H136.195a2.364,2.364,0,0,1,0-4.666H165.45a2.364,2.364,0,0,1,0,4.666Z" transform="translate(55.373 -3608.257)"/>
    <path id="Path_310" data-name="Path 310" d="M373.146,4521.006H320.4a2.364,2.364,0,0,1,0-4.667h52.741a2.364,2.364,0,0,1,0,4.667Z" transform="translate(114.902 -3585.58)"/>
    <path id="Path_311" data-name="Path 311" d="M1346.192,4011.836h-68.407a2.364,2.364,0,0,1,0-4.666h68.407a2.364,2.364,0,0,1,0,4.667Z" transform="translate(424.291 -3868.369)"/>
    <path id="Path_312" data-name="Path 312" d="M1276.279,4011.836h-41.454a2.364,2.364,0,0,1,0-4.666h41.454a2.364,2.364,0,0,1,0,4.667Z" transform="translate(410.408 -3868.369)"/>
    <path id="Path_313" data-name="Path 313" d="M1195.563,4011.836h-37.5a2.364,2.364,0,0,1,0-4.666h37.5a2.364,2.364,0,0,1,0,4.667Z" transform="translate(385.602 -3868.369)"/>
    <path id="Path_314" data-name="Path 314" d="M1445.445,4011.836h-32.96a2.364,2.364,0,0,1,0-4.666h33a2.364,2.364,0,0,1-.04,4.666Z" transform="translate(467.82 -3868.369)"/>
    <path id="Path_315" data-name="Path 315" d="M1284.526,4032.136h-20.641a2.364,2.364,0,0,1,0-4.667h20.641a2.364,2.364,0,0,1,0,4.667Z" transform="translate(419.798 -3857.094)"/>
    <path id="Path_316" data-name="Path 316" d="M1386.6,3971.006h-84.113a2.363,2.363,0,0,1,0-4.666h84.127a2.364,2.364,0,0,1-.013,4.666Z" transform="translate(432.273 -3891.045)"/>
    <path id="Path_317" data-name="Path 317" d="M1191.734,3971.006H1171.3a2.363,2.363,0,0,1,0-4.666h20.43a2.364,2.364,0,0,1,0,4.667Z" transform="translate(389.88 -3891.045)"/>
    <path id="Path_318" data-name="Path 318" d="M1189.321,3971.006H1061.3a2.363,2.363,0,0,1,0-4.666h128.016a2.364,2.364,0,0,1,0,4.667Z" transform="translate(354.332 -3891.045)"/>
    <path id="Path_319" data-name="Path 319" d="M1396.23,3971.006h-17.056a2.363,2.363,0,0,1,0-4.666h17.056a2.364,2.364,0,0,1,0,4.667Z" transform="translate(457.056 -3891.045)"/>
    <path id="Path_320" data-name="Path 320" d="M1137.925,3991.306h-29.44a2.364,2.364,0,0,1,0-4.666h29.467a2.364,2.364,0,0,1-.026,4.667Z" transform="translate(369.579 -3879.771)"/>
    <path id="Path_321" data-name="Path 321" d="M1352.975,3991.306h-38.491a2.364,2.364,0,0,1,0-4.666h38.491a2.364,2.364,0,0,1,0,4.667Z" transform="translate(436.151 -3879.771)"/>
    <path id="Path_322" data-name="Path 322" d="M1323.79,3950.666h-40.515a2.364,2.364,0,0,1,0-4.666h40.515a2.364,2.364,0,0,1,0,4.666Z" transform="translate(426.065 -3902.342)"/>
    <path id="Path_323" data-name="Path 323" d="M1153.378,3950.666h-49.394a2.364,2.364,0,0,1,0-4.666h49.38a2.363,2.363,0,0,1,.013,4.666Z" transform="translate(368.125 -3902.342)"/>
    <path id="Path_324" data-name="Path 324" d="M1123.325,3950.666H972.485a2.364,2.364,0,0,1,0-4.666h150.84a2.364,2.364,0,0,1,0,4.666Z" transform="translate(325.629 -3902.342)"/>
    <path id="Path_325" data-name="Path 325" d="M415.631,3950.666H311.485a2.364,2.364,0,0,1,0-4.666H415.671a2.363,2.363,0,0,1-.04,4.666Z" transform="translate(112.02 -3902.342)"/>
    <path id="Path_326" data-name="Path 326" d="M459.426,3950.666H404.1a2.364,2.364,0,0,1,0-4.666h55.321a2.364,2.364,0,0,1,0,4.666Z" transform="translate(141.951 -3902.342)"/>
    <path id="Path_327" data-name="Path 327" d="M1326.486,4072.967h-12a2.363,2.363,0,0,1,0-4.666h12a2.364,2.364,0,0,1,0,4.667Z" transform="translate(436.151 -3834.418)"/>
    <path id="Path_328" data-name="Path 328" d="M1386.806,4072.967h-46.681a2.363,2.363,0,0,1,0-4.666h46.681a2.364,2.364,0,0,1,0,4.667Z" transform="translate(444.436 -3834.418)"/>
    <path id="Path_329" data-name="Path 329" d="M1289.559,4093.267h-31.5a2.364,2.364,0,0,1,0-4.667h31.5a2.364,2.364,0,0,1,0,4.667Z" transform="translate(417.915 -3823.144)"/>
    <path id="Path_330" data-name="Path 330" d="M1420.906,4093.267h-45.331a2.364,2.364,0,0,1,0-4.667h45.331a2.364,2.364,0,0,1,0,4.667Z" transform="translate(455.893 -3823.144)"/>
    <path id="Path_331" data-name="Path 331" d="M1375.111,4052.436h-24.386a2.363,2.363,0,0,1,0-4.666h24.386a2.363,2.363,0,0,1,0,4.666Z" transform="translate(447.862 -3845.82)"/>
    <path id="Path_332" data-name="Path 332" d="M1254.918,4154.426h-16.434a2.364,2.364,0,0,1,0-4.666h16.434a2.364,2.364,0,0,1,0,4.666Z" transform="translate(411.59 -3789.176)"/>
    <path id="Path_333" data-name="Path 333" d="M1296.056,4154.426h-31.981a2.364,2.364,0,0,1,0-4.666h31.981a2.364,2.364,0,0,1,0,4.666Z" transform="translate(419.86 -3789.176)"/>
    <path id="Path_334" data-name="Path 334" d="M1333.34,4154.426h-18.855a2.364,2.364,0,0,1,0-4.666h18.855a2.364,2.364,0,0,1,0,4.666Z" transform="translate(436.151 -3789.176)"/>
    <path id="Path_335" data-name="Path 335" d="M1393.18,4154.426h-49.605a2.364,2.364,0,0,1,0-4.666h49.605a2.364,2.364,0,0,1,0,4.666Z" transform="translate(445.551 -3789.176)"/>
    <path id="Path_336" data-name="Path 336" d="M1442.93,4154.426h-26.635a2.364,2.364,0,0,1,0-4.666h26.635a2.364,2.364,0,0,1,0,4.666Z" transform="translate(469.052 -3789.176)"/>
    <path id="Path_337" data-name="Path 337" d="M1406.645,4113.6h-55.93a2.364,2.364,0,0,1,0-4.666h55.93a2.364,2.364,0,0,1,0,4.666Z" transform="translate(447.859 -3811.852)"/>
    <path id="Path_338" data-name="Path 338" d="M1351.843,4133.9h-37.948a2.364,2.364,0,0,1,0-4.667h37.948a2.364,2.364,0,0,1,0,4.667Z" transform="translate(435.96 -3800.578)"/>
    <path id="Path_339" data-name="Path 339" d="M1372.564,4133.9H1358.6a2.364,2.364,0,0,1,0-4.667h13.959a2.364,2.364,0,0,1,0,4.667Z" transform="translate(450.408 -3800.578)"/>
    <path id="Path_340" data-name="Path 340" d="M1280.356,4215.936h-35.871a2.364,2.364,0,0,1,0-4.666h35.831a2.364,2.364,0,0,1,.04,4.666Z" transform="translate(413.529 -3755.013)"/>
    <path id="Path_341" data-name="Path 341" d="M1322.368,4215.936h-34.693a2.364,2.364,0,0,1,0-4.666h34.693a2.364,2.364,0,0,1,0,4.666Z" transform="translate(427.486 -3755.013)"/>
    <path id="Path_342" data-name="Path 342" d="M1397.038,4215.936h-65.4a2.364,2.364,0,0,1,0-4.666h65.4a2.364,2.364,0,0,1,0,4.666Z" transform="translate(441.693 -3755.013)"/>
    <path id="Path_343" data-name="Path 343" d="M1263.5,4235.856h-38.371a2.363,2.363,0,0,1,0-4.666H1263.5a2.364,2.364,0,0,1,0,4.667Z" transform="translate(407.273 -3743.949)"/>
    <path id="Path_344" data-name="Path 344" d="M1441.782,4256.116h-32.047a2.363,2.363,0,0,1,0-4.666h32.047a2.363,2.363,0,0,1,0,4.666Z" transform="translate(466.932 -3732.698)"/>
    <path id="Path_345" data-name="Path 345" d="M1301.663,4195.027h-20.178a2.364,2.364,0,0,1,0-4.667H1301.6a2.166,2.166,0,0,1,2.018,2.293A2.2,2.2,0,0,1,1301.663,4195.027Z" transform="translate(425.486 -3766.627)"/>
    <path id="Path_346" data-name="Path 346" d="M1351.244,4195.027h-38.2a2.364,2.364,0,0,1,0-4.667h38.2a2.364,2.364,0,0,1,0,4.667Z" transform="translate(435.685 -3766.627)"/>
    <path id="Path_347" data-name="Path 347" d="M1448.758,4195.027h-39.033a2.364,2.364,0,0,1,0-4.667h39.033a2.364,2.364,0,0,1,0,4.667Z" transform="translate(466.928 -3766.627)"/>
    <path id="Path_348" data-name="Path 348" d="M1344.687,4296.986h-56.1a2.364,2.364,0,0,1,0-4.667h56.1a2.364,2.364,0,0,1,0,4.667Z" transform="translate(427.78 -3709.998)"/>
    <path id="Path_349" data-name="Path 349" d="M1372.887,4296.986h-27.4a2.364,2.364,0,0,1,0-4.667h27.363a2.364,2.364,0,0,1,.039,4.667Z" transform="translate(446.169 -3709.998)"/>
    <path id="Path_350" data-name="Path 350" d="M1439.919,4317.286h-30.195a2.363,2.363,0,0,1,0-4.666h30.195a2.363,2.363,0,0,1,0,4.666Z" transform="translate(466.929 -3698.724)"/>
    <path id="Path_351" data-name="Path 351" d="M1389.873,4256.157h-40.158a2.364,2.364,0,0,1,0-4.667h40.158a2.364,2.364,0,0,1,0,4.667Z" transform="translate(447.535 -3732.676)"/>
    <path id="Path_352" data-name="Path 352" d="M1315.035,4276.456h-12.16a2.363,2.363,0,0,1,0-4.666h12.16a2.363,2.363,0,0,1,0,4.666Z" transform="translate(432.399 -3721.401)"/>
    <path id="Path_353" data-name="Path 353" d="M1352.31,4276.456h-27.945a2.363,2.363,0,0,1,0-4.666h27.945a2.363,2.363,0,0,1,0,4.666Z" transform="translate(439.343 -3721.401)"/>
    <path id="Path_354" data-name="Path 354" d="M1441.418,4276.456h-31.584a2.363,2.363,0,0,1,0-4.666h31.584a2.363,2.363,0,0,1,0,4.666Z" transform="translate(466.964 -3721.401)"/>
    <path id="Path_355" data-name="Path 355" d="M1396.956,4358.117h-67.931a2.364,2.364,0,0,1,0-4.667h67.931a2.364,2.364,0,0,1,0,4.667Z" transform="translate(440.849 -3676.047)"/>
    <path id="Path_356" data-name="Path 356" d="M1393.649,4378.416h-35.884a2.363,2.363,0,0,1,0-4.666h35.884a2.363,2.363,0,0,1,0,4.666Z" transform="translate(450.137 -3664.774)"/>
    <path id="Path_357" data-name="Path 357" d="M1356.846,4337.586h-55.361a2.364,2.364,0,0,1,0-4.667h55.361a2.364,2.364,0,0,1,0,4.667Z" transform="translate(431.949 -3687.449)"/>
    <path id="Path_358" data-name="Path 358" d="M1384.45,4337.586h-16.725a2.364,2.364,0,0,1,0-4.667h16.725a2.364,2.364,0,0,1,0,4.667Z" transform="translate(453.356 -3687.449)"/>
    <path id="Path_359" data-name="Path 359" d="M1327.03,4439.577h-60.865a2.364,2.364,0,0,1,0-4.667h60.865a2.364,2.364,0,0,1,0,4.667Z" transform="translate(420.535 -3630.805)"/>
    <path id="Path_360" data-name="Path 360" d="M1402.032,4439.577H1325.8a2.364,2.364,0,0,1,0-4.667h76.227a2.364,2.364,0,0,1,0,4.667Z" transform="translate(439.809 -3630.805)"/>
    <path id="Path_361" data-name="Path 361" d="M1287,4459.876h-74.878a2.364,2.364,0,0,1,0-4.667H1287a2.364,2.364,0,0,1,0,4.667Z" transform="translate(403.072 -3619.531)"/>
    <path id="Path_362" data-name="Path 362" d="M1323.7,4459.876h-39.219a2.364,2.364,0,0,1,0-4.667h39.192a2.364,2.364,0,0,1,.026,4.667Z" transform="translate(426.456 -3619.531)"/>
    <path id="Path_363" data-name="Path 363" d="M1295.468,4398.747h-18.683a2.364,2.364,0,0,1,0-4.667h18.683a2.364,2.364,0,0,1,0,4.667Z" transform="translate(423.967 -3653.482)"/>
    <path id="Path_364" data-name="Path 364" d="M1442.693,4398.747h-30.208a2.364,2.364,0,0,1,0-4.667h30.247a2.365,2.365,0,0,1-.04,4.667Z" transform="translate(467.82 -3653.482)"/>
    <path id="Path_365" data-name="Path 365" d="M1326.937,4419.045h-44.392a2.363,2.363,0,0,1,0-4.666h44.392a2.363,2.363,0,0,1,0,4.666Z" transform="translate(425.829 -3642.208)"/>
    <path id="Path_366" data-name="Path 366" d="M1355.346,4419.045h-18.961a2.363,2.363,0,0,1,0-4.666h18.961a2.363,2.363,0,0,1,0,4.666Z" transform="translate(443.228 -3642.208)"/>
    <path id="Path_367" data-name="Path 367" d="M1205.344,4521.006h-21.859a2.364,2.364,0,0,1,0-4.667h21.832a2.364,2.364,0,0,1,.027,4.667Z" transform="translate(393.816 -3585.58)"/>
    <path id="Path_368" data-name="Path 368" d="M1410.273,4521.006h-47.078a2.364,2.364,0,0,1,0-4.667h47.078a2.364,2.364,0,0,1,0,4.667Z" transform="translate(451.892 -3585.58)"/>
    <path id="Path_369" data-name="Path 369" d="M1439.036,4521.006h-25.391a2.364,2.364,0,0,1,0-4.667h25.391a2.364,2.364,0,0,1,0,4.667Z" transform="translate(468.195 -3585.58)"/>
    <path id="Path_370" data-name="Path 370" d="M1351.4,4541.306h-17.783a2.363,2.363,0,0,1,0-4.666H1351.4a2.363,2.363,0,0,1,0,4.666Z" transform="translate(442.332 -3574.306)"/>
    <path id="Path_371" data-name="Path 371" d="M1326.207,4541.306h-34.4a2.363,2.363,0,0,1,0-4.666h34.4a2.363,2.363,0,0,1,0,4.666Z" transform="translate(428.821 -3574.306)"/>
    <path id="Path_372" data-name="Path 372" d="M1148.667,4541.306h-28.832a2.363,2.363,0,0,1,0-4.666h28.832a2.363,2.363,0,0,1,0,4.666Z" transform="translate(373.247 -3574.306)"/>
    <path id="Path_373" data-name="Path 373" d="M1128.844,4541.306h-83.359a2.363,2.363,0,0,1,0-4.666h83.359a2.363,2.363,0,0,1,0,4.666Z" transform="translate(349.22 -3574.306)"/>
    <path id="Path_374" data-name="Path 374" d="M1225.591,4541.306h-66.846a2.363,2.363,0,0,1,0-4.666h66.846a2.363,2.363,0,0,1,0,4.666Z" transform="translate(385.821 -3574.306)"/>
    <path id="Path_375" data-name="Path 375" d="M1399.044,4561.616h-87.249a2.363,2.363,0,0,1,0-4.666h87.249a2.363,2.363,0,0,1,0,4.666Z" transform="translate(435.281 -3563.025)"/>
    <path id="Path_376" data-name="Path 376" d="M1188.829,4561.616h-48.494a2.363,2.363,0,0,1,0-4.666h48.494a2.363,2.363,0,0,1,0,4.666Z" transform="translate(379.872 -3563.025)"/>
    <path id="Path_377" data-name="Path 377" d="M1075.663,4561.616h-24.968a2.363,2.363,0,0,1,0-4.666h24.968a2.363,2.363,0,0,1,0,4.666Z" transform="translate(350.904 -3563.025)"/>
    <path id="Path_378" data-name="Path 378" d="M1059.578,4561.616h-89.8a2.363,2.363,0,0,1,0-4.666h89.816a2.363,2.363,0,0,1-.013,4.665Z" transform="translate(324.754 -3563.025)"/>
    <path id="Path_379" data-name="Path 379" d="M319.052,4541.306H296.995a2.363,2.363,0,0,1,0-4.666h22.044a2.363,2.363,0,0,1,.013,4.666Z" transform="translate(107.337 -3574.306)"/>
    <path id="Path_380" data-name="Path 380" d="M62.343,4541.306H36.1a2.363,2.363,0,0,1,0-4.666H62.343a2.363,2.363,0,0,1,0,4.666Z" transform="translate(23.027 -3574.306)"/>
    <path id="Path_381" data-name="Path 381" d="M349.31,4541.306H325.745a2.363,2.363,0,0,1,0-4.666H349.31a2.363,2.363,0,0,1,0,4.666Z" transform="translate(116.628 -3574.306)"/>
    <path id="Path_382" data-name="Path 382" d="M365.644,4561.616H278.395a2.363,2.363,0,0,1,0-4.666h87.249a2.363,2.363,0,0,1,0,4.666Z" transform="translate(101.326 -3563.025)"/>
    <path id="Path_383" data-name="Path 383" d="M283.146,4561.616H203.055a2.363,2.363,0,0,1,0-4.666h80.091a2.363,2.363,0,0,1,0,4.666Z" transform="translate(76.979 -3563.025)"/>
    <path id="Path_384" data-name="Path 384" d="M180.25,4561.616H159.265a2.363,2.363,0,0,1,0-4.666h20.972a2.363,2.363,0,0,1,.013,4.665Z" transform="translate(62.828 -3563.025)"/>
    <path id="Path_385" data-name="Path 385" d="M112.522,4561.616H17.255a2.363,2.363,0,0,1,0-4.666h95.268a2.363,2.363,0,0,1,0,4.666Z" transform="translate(16.936 -3563.025)"/>
    <path id="Path_386" data-name="Path 386" d="M446.288,4561.616H359.145a2.363,2.363,0,0,1,0-4.666h87.143a2.363,2.363,0,0,1,0,4.666Z" transform="translate(127.421 -3563.025)"/>
    <path id="Path_387" data-name="Path 387" d="M1270.45,4480.176h-17.585a2.364,2.364,0,0,1,0-4.666h17.585a2.364,2.364,0,0,1,0,4.666Z" transform="translate(416.237 -3608.257)"/>
    <path id="Path_388" data-name="Path 388" d="M1274.675,4575.264h-40.251a2.364,2.364,0,0,1,0-4.667h40.251c12.622-.019,22.85-12.04,22.865-26.877v-36.675c.015-17.413,12.02-31.525,26.834-31.543l173.731,0a2.364,2.364,0,0,1,0,4.667H1324.374c-12.621.017-22.85,12.04-22.865,26.878v36.675c-.015,17.415-12.02,31.527-26.834,31.544Z" transform="translate(410.278 -3608.261)"/>
    <path id="Path_389" data-name="Path 389" d="M144.667,4029.616c-16.012-.008-28.995-15.256-29.017-34.079a2.011,2.011,0,1,1,3.969,0c.015,16.237,11.208,29.4,25.021,29.412H266.16c12.621-.017,22.85-12.041,22.864-26.877V3920.3a2.011,2.011,0,1,1,3.97,0v77.77c-.014,17.414-12.02,31.527-26.834,31.543H144.667Z" transform="translate(49.375 -3917.91)"/>
    <path id="Path_390" data-name="Path 390" d="M183.514,4511.281c-4.757,0-8.614-4.534-8.614-10.125s3.857-10.125,8.614-10.125,8.614,4.533,8.614,10.125-3.859,10.119-8.614,10.126Zm0-15.554c-2.565,0-4.644,2.443-4.644,5.459s2.079,5.459,4.644,5.459,4.644-2.444,4.644-5.459a6,6,0,0,0-1.337-3.911,4.326,4.326,0,0,0-3.307-1.626Z" transform="translate(68.522 -3599.636)"/>
    <path id="Path_391" data-name="Path 391" d="M49.454,4327.861c-4.757,0-8.614-4.532-8.614-10.125s3.857-10.125,8.614-10.125,8.614,4.534,8.614,10.125-3.86,10.117-8.614,10.127Zm0-15.554c-2.565,0-4.644,2.444-4.644,5.458s2.079,5.459,4.644,5.459,4.644-2.442,4.644-5.459a5.982,5.982,0,0,0-1.356-3.869,4.325,4.325,0,0,0-3.288-1.6Z" transform="translate(25.199 -3701.507)"/>
    <path id="Path_392" data-name="Path 392" d="M136.2,4144.47c-4.757,0-8.614-4.533-8.614-10.125s3.857-10.126,8.614-10.125,8.614,4.533,8.614,10.125S140.958,4144.463,136.2,4144.47Zm0-15.554c-2.565,0-4.644,2.444-4.644,5.46s2.079,5.458,4.644,5.458,4.644-2.444,4.644-5.458a5.99,5.99,0,0,0-1.351-3.882,4.321,4.321,0,0,0-3.293-1.609Z" transform="translate(53.233 -3803.359)"/>
    <path id="Path_393" data-name="Path 393" d="M102.476,4226.754a1.847,1.847,0,0,1-1.4-.685L74.081,4194.4a2.636,2.636,0,0,1,.045-3.245,1.78,1.78,0,0,1,2.76-.053l26.993,31.73a2.651,2.651,0,0,1,.375,2.492A2.019,2.019,0,0,1,102.476,4226.754Z" transform="translate(35.768 -3766.563)"/>
    <path id="Path_394" data-name="Path 394" d="M332.944,3981.939a2.009,2.009,0,0,1-1.832-1.439,2.641,2.641,0,0,1,.43-2.542l26.6-31.263a1.779,1.779,0,0,1,2.756.057,2.635,2.635,0,0,1,.048,3.24l-26.6,31.264A1.846,1.846,0,0,1,332.944,3981.939Z" transform="translate(118.955 -3902.305)"/>
    <path id="Path_395" data-name="Path 395" d="M1356.221,4226.455a1.854,1.854,0,0,1-1.4-.683l-26.688-31.452a2.637,2.637,0,0,1,.049-3.241,1.78,1.78,0,0,1,2.757-.057l26.754,31.45a2.641,2.641,0,0,1,.418,2.579,1.99,1.99,0,0,1-1.886,1.4Z" transform="translate(441.029 -3766.605)"/>
    <path id="Path_396" data-name="Path 396" d="M1307.865,4022.736a2.01,2.01,0,0,1-1.832-1.44,2.64,2.64,0,0,1,.43-2.542l26.754-31.45a1.779,1.779,0,0,1,2.756.057,2.636,2.636,0,0,1,.049,3.24l-26.755,31.45A1.849,1.849,0,0,1,1307.865,4022.736Z" transform="translate(434.011 -3879.751)"/>
    <path id="Path_397" data-name="Path 397" d="M1284.284,4450.607a2.01,2.01,0,0,1-1.832-1.439,2.64,2.64,0,0,1,.429-2.541l26.807-31.4a1.779,1.779,0,0,1,2.756.058,2.634,2.634,0,0,1,.049,3.239l-26.754,31.451A1.824,1.824,0,0,1,1284.284,4450.607Z" transform="translate(426.392 -3642.087)"/>
    <path id="Path_398" data-name="Path 398" d="M113.284,4532.175a2.012,2.012,0,0,1-1.832-1.441,2.638,2.638,0,0,1,.429-2.541l26.807-31.451a1.8,1.8,0,0,1,1.941-.666,2.189,2.189,0,0,1,1.43,1.682,2.609,2.609,0,0,1-.566,2.283l-26.754,31.449a1.843,1.843,0,0,1-1.455.684Z" transform="translate(47.969 -3596.872)"/>
    <path id="Path_399" data-name="Path 399" d="M134.9,4373.787H52.865a2.364,2.364,0,0,1,0-4.667H134.9a20.9,20.9,0,0,0,16.12-7.7,28.979,28.979,0,0,0,6.625-18.914l.291-68.592c.044-17.38,12.037-31.443,26.82-31.451h22.322c13.749,0,24.9-13.08,24.942-29.242a2.011,2.011,0,1,1,3.969,0c-.037,18.738-12.97,33.906-28.911,33.906H184.771c-12.607,0-22.835,12-22.864,26.816l-.291,68.576C161.564,4359.818,149.615,4373.8,134.9,4373.787Z" transform="translate(28.444 -3755.224)"/>
    <path id="Path_400" data-name="Path 400" d="M93.555,4430.276a2.363,2.363,0,0,1,0-4.666c13.623-.079,24.621-13.1,24.584-29.119a2.011,2.011,0,1,1,3.969,0c.029,18.587-12.742,33.7-28.554,33.783Z" transform="translate(41.593 -3653.438)"/>
    <path id="Path_401" data-name="Path 401" d="M308.1,3961.231c-4.757,0-8.614-4.534-8.614-10.125s3.857-10.126,8.614-10.126,8.614,4.533,8.614,10.126S312.858,3961.223,308.1,3961.231Zm0-15.554c-2.565,0-4.644,2.444-4.644,5.459s2.079,5.459,4.644,5.459,4.644-2.444,4.644-5.459-2.079-5.459-4.644-5.459Z" transform="translate(108.785 -3905.131)"/>
    <path id="Path_402" data-name="Path 402" d="M1375.784,4063.011c-4.757,0-8.614-4.533-8.614-10.126s3.857-10.125,8.614-10.125,8.614,4.533,8.614,10.125S1380.538,4063,1375.784,4063.011Zm0-15.554c-2.565,0-4.644,2.444-4.644,5.459s2.079,5.459,4.644,5.459,4.644-2.444,4.644-5.459a5.985,5.985,0,0,0-1.351-3.88,4.324,4.324,0,0,0-3.293-1.611Z" transform="translate(453.818 -3848.602)"/>
    <path id="Path_403" data-name="Path 403" d="M1364.314,4348.16c-4.757,0-8.614-4.533-8.614-10.125s3.856-10.125,8.614-10.125,8.614,4.532,8.614,10.125S1369.071,4348.16,1364.314,4348.16Zm0-15.553c-2.565,0-4.644,2.443-4.644,5.459s2.079,5.459,4.644,5.459,4.644-2.444,4.644-5.459a5.986,5.986,0,0,0-1.355-3.871,4.325,4.325,0,0,0-3.289-1.6Z" transform="translate(450.111 -3690.232)"/>
    <path id="Path_404" data-name="Path 404" d="M1230.874,4551.881c-4.757,0-8.614-4.534-8.614-10.125s3.857-10.126,8.614-10.126,8.614,4.534,8.614,10.126S1235.628,4551.872,1230.874,4551.881Zm0-15.553c-2.565,0-4.644,2.444-4.644,5.458s2.079,5.459,4.644,5.459,4.644-2.445,4.644-5.459a5.982,5.982,0,0,0-1.356-3.87,4.325,4.325,0,0,0-3.288-1.6Z" transform="translate(406.988 -3577.087)"/>
    <path id="Path_405" data-name="Path 405" d="M1365.485,4124.825a2.363,2.363,0,0,1,0-4.666c13.674-.018,24.755-13.043,24.769-29.117a2.011,2.011,0,1,1,3.97,0C1394.2,4109.69,1381.348,4124.8,1365.485,4124.825Z" transform="translate(452.632 -3823.082)"/>
    <path id="Path_406" data-name="Path 406" d="M1120.485,4002.5a2.179,2.179,0,0,1-1.985-2.332c.014-18.677,12.891-33.814,28.779-33.831a2.364,2.364,0,0,1,0,4.666c-13.7.017-24.8,13.065-24.809,29.164a2.18,2.18,0,0,1-1.985,2.334Z" transform="translate(373.457 -3891.045)"/>
    <path id="Path_407" data-name="Path 407" d="M1322.275,3979.839h0a2.18,2.18,0,0,1-1.985-2.333c.037-17.385,12.032-31.458,26.821-31.466h124.377a2.364,2.364,0,0,1,0,4.666H1347.11c-12.628-.034-22.888,11.971-22.917,26.815a2.193,2.193,0,0,1-1.919,2.318Z" transform="translate(438.668 -3902.32)"/>
    <path id="Path_408" data-name="Path 408" d="M1446.639,4434.527h-27.085c-14.814-.016-26.819-14.129-26.834-31.542V4275.053a2.011,2.011,0,1,1,3.969,0v127.931c.015,14.836,10.243,26.86,22.865,26.877h27.1a2.363,2.363,0,0,1-.013,4.665Z" transform="translate(462.074 -3720.884)"/>
    <path id="Path_409" data-name="Path 409" d="M1333.825,4184.616a2.18,2.18,0,0,1-1.985-2.333c-.029-14.811-10.252-26.8-22.851-26.8h0l-81.8.125h0c-14.783-.026-26.77-14.088-26.821-31.465l-.37-199.9a2.18,2.18,0,0,1,1.985-2.333h0a2.181,2.181,0,0,1,1.985,2.333l.251,199.9c.044,14.8,10.258,26.782,22.851,26.8h0l81.8-.124h0c14.789.007,26.784,14.08,26.821,31.465a2.181,2.181,0,0,1-1.985,2.333h.119Z" transform="translate(399.795 -3915.721)"/>
    <path id="Path_410" data-name="Path 410" d="M1424.814,4424.592a2.18,2.18,0,0,1-1.985-2.333V4280.547c-.015-14.833-10.245-26.853-22.864-26.861h-73.621c-14.814-.017-26.82-14.129-26.834-31.544V4210.85l.238-151.913c.037-17.385,12.032-31.457,26.821-31.466h0l159.494.125a2.363,2.363,0,0,1,0,4.666h0l-159.494-.124h0c-12.607,0-22.836,12-22.864,26.816l-.264,163.206c.015,14.834,10.245,26.854,22.864,26.861h73.621c14.809.018,26.812,14.121,26.834,31.528v141.711a2.189,2.189,0,0,1-1.945,2.333Z" transform="translate(431.952 -3857.094)"/>
    <path id="Path_411" data-name="Path 411" d="M187.419,4145.045a2.18,2.18,0,0,1-1.985-2.333c-.014-16.074-11.1-29.1-24.77-29.117a2.364,2.364,0,0,1,0-4.667c15.863.026,28.717,15.137,28.739,33.783A2.18,2.18,0,0,1,187.419,4145.045Z" transform="translate(63.28 -3811.852)"/>
  </g>
</svg>
